<?xml version="1.0" encoding="UTF-8" standalone="no"?>
<!-- Created with Inkscape (http://www.inkscape.org/) -->

<svg
   xmlns:dc="http://purl.org/dc/elements/1.1/"
   xmlns:cc="http://creativecommons.org/ns#"
   xmlns:rdf="http://www.w3.org/1999/02/22-rdf-syntax-ns#"
   xmlns:svg="http://www.w3.org/2000/svg"
   xmlns="http://www.w3.org/2000/svg"
   xmlns:sodipodi="http://sodipodi.sourceforge.net/DTD/sodipodi-0.dtd"
   xmlns:inkscape="http://www.inkscape.org/namespaces/inkscape"
   width="76.743507mm"
   height="76.445053mm"
   viewBox="0 0 76.743507 76.445053"
   version="1.1"
   id="svg125"
   inkscape:version="0.92.0 r15299"
   sodipodi:docname="bogazici universitesi.svg">
  <defs
     id="defs119">
    <clipPath
       id="clipPath42"
       clipPathUnits="userSpaceOnUse">
      <path
         inkscape:connector-curvature="0"
         id="path40"
         d="M 0,0 H 595.276 V 841.89 H 0 Z" />
    </clipPath>
  </defs>
  <sodipodi:namedview
     id="base"
     pagecolor="#ffffff"
     bordercolor="#666666"
     borderopacity="1.0"
     inkscape:pageopacity="0.0"
     inkscape:pageshadow="2"
     inkscape:zoom="1.8692135"
     inkscape:cx="116.9231"
     inkscape:cy="142.57333"
     inkscape:document-units="mm"
     inkscape:current-layer="layer1"
     showgrid="false"
     fit-margin-top="0"
     fit-margin-left="0"
     fit-margin-right="0"
     fit-margin-bottom="0"
     inkscape:window-width="1280"
     inkscape:window-height="744"
     inkscape:window-x="-4"
     inkscape:window-y="-4"
     inkscape:window-maximized="1" />
  <metadata
     id="metadata122">
    <rdf:RDF>
      <cc:Work
         rdf:about="">
        <dc:format>image/svg+xml</dc:format>
        <dc:type
           rdf:resource="http://purl.org/dc/dcmitype/StillImage" />
        <dc:title></dc:title>
      </cc:Work>
    </rdf:RDF>
  </metadata>
  <g
     inkscape:label="Layer 1"
     inkscape:groupmode="layer"
     id="layer1"
     transform="translate(23.317994,-171.90018)">
    <g
       id="g36"
       transform="matrix(0.35277777,0,0,-0.35277777,-89.94631,358.62285)">
      <g
         id="g38"
         clip-path="url(#clipPath42)">
        <g
           id="g44"
           transform="translate(404.991,420.9463)">
          <path
             d="m 0,0 c 0,59.054 -48.064,106.929 -107.329,106.929 -59.322,0 -107.377,-47.875 -107.377,-106.929 0,-59.065 48.055,-106.931 107.377,-106.931 C -48.064,-106.931 0,-59.065 0,0"
             style="fill:#ffffff;fill-opacity:1;fill-rule:nonzero;stroke:none"
             id="path46"
             inkscape:connector-curvature="0" />
        </g>
        <g
           id="g48"
           transform="translate(396.2426,420.9468)">
          <path
             d="m 0,0 c 0,54.245 -44.149,98.221 -98.581,98.221 -54.489,0 -98.633,-43.976 -98.633,-98.221 0,-54.253 44.144,-98.221 98.633,-98.221 C -44.149,-98.221 0,-54.253 0,0 m -98.581,-99.639 c -55.271,0 -100.04,44.611 -100.04,99.639 0,55.028 44.769,99.628 100.04,99.628 55.22,0 99.997,-44.6 99.997,-99.628 0,-55.028 -44.777,-99.639 -99.997,-99.639 m 79.652,64.504 c 0.267,-1.564 -0.777,-3.062 -2.355,-3.321 -1.575,-0.265 -3.063,0.755 -3.327,2.341 -0.291,1.565 0.761,3.055 2.355,3.319 1.568,0.289 3.066,-0.774 3.327,-2.339 m -153.951,-1.912 c -0.769,-1.393 -2.529,-1.901 -3.931,-1.124 -1.388,0.764 -1.887,2.526 -1.105,3.907 0.769,1.388 2.486,1.904 3.917,1.129 1.386,-0.755 1.917,-2.51 1.119,-3.912 m 105.741,-43.182 c 0.357,-1.098 0.312,-2.187 -0.193,-3.266 -0.483,-1.076 -1.466,-1.864 -2.961,-2.347 -1.826,-0.609 -3.3,-0.43 -4.404,0.529 -0.6,0.51 -1.092,1.273 -1.46,2.291 l 2.491,0.809 c 0.187,-0.51 0.406,-0.9 0.686,-1.188 0.522,-0.518 1.175,-0.655 1.993,-0.388 0.507,0.174 0.883,0.481 1.143,0.954 0.261,0.462 0.277,1.014 0.069,1.658 -0.283,0.852 -0.812,1.3 -1.597,1.354 -0.454,0.034 -1.086,-0.083 -1.93,-0.361 l -0.617,1.811 c 0.825,0.285 1.372,0.563 1.65,0.817 0.491,0.435 0.606,1.036 0.336,1.797 -0.157,0.494 -0.435,0.846 -0.817,1.06 -0.379,0.213 -0.843,0.232 -1.364,0.053 -0.612,-0.195 -0.991,-0.528 -1.138,-0.998 -0.165,-0.476 -0.131,-1.036 0.091,-1.661 l -2.379,-0.783 c -0.197,0.641 -0.27,1.298 -0.27,1.939 0.043,0.579 0.214,1.153 0.518,1.725 0.233,0.406 0.545,0.772 0.959,1.087 0.411,0.309 0.945,0.566 1.599,0.795 1.255,0.406 2.358,0.406 3.322,0.027 0.967,-0.395 1.637,-1.129 2.003,-2.197 0.246,-0.764 0.234,-1.474 -0.051,-2.158 -0.179,-0.419 -0.4,-0.742 -0.676,-0.961 0.236,0.077 0.631,-0.011 1.207,-0.257 0.831,-0.387 1.448,-1.1 1.79,-2.141 m -20.737,-6.636 c -0.313,-0.483 -0.745,-0.755 -1.344,-0.819 -0.609,-0.065 -1.121,0.109 -1.575,0.526 -0.44,0.424 -0.692,1.001 -0.772,1.735 -0.091,0.892 0.102,1.57 0.572,2.032 0.333,0.315 0.718,0.492 1.166,0.542 0.572,0.064 1.071,-0.096 1.504,-0.486 0.43,-0.371 0.686,-0.958 0.769,-1.746 0.08,-0.724 -0.035,-1.308 -0.32,-1.784 m 1.511,5.295 c -0.838,0.732 -1.872,1.031 -3.092,0.911 -0.556,-0.053 -1.055,-0.2 -1.466,-0.419 -0.414,-0.233 -0.783,-0.566 -1.055,-0.975 -0.042,1.039 0.014,1.845 0.141,2.409 0.286,1.012 0.842,1.556 1.726,1.644 0.568,0.062 1.019,-0.101 1.359,-0.502 0.192,-0.232 0.315,-0.47 0.328,-0.686 l 2.657,0.27 c -0.206,1.071 -0.705,1.888 -1.53,2.443 -0.833,0.569 -1.858,0.783 -3.127,0.654 -0.876,-0.085 -1.596,-0.365 -2.189,-0.838 -0.59,-0.454 -1.039,-1.031 -1.36,-1.728 -0.368,-0.806 -0.555,-1.802 -0.592,-2.988 -0.027,-0.654 0.015,-1.482 0.128,-2.523 0.181,-1.76 0.651,-3.167 1.399,-4.214 0.969,-1.345 2.299,-1.917 4.01,-1.741 1.6,0.163 2.714,0.761 3.376,1.813 0.646,1.047 0.905,2.209 0.782,3.461 -0.136,1.271 -0.638,2.275 -1.495,3.009 m -19.263,1.664 c -0.054,-0.494 -0.257,-0.884 -0.59,-1.154 -0.328,-0.283 -0.769,-0.395 -1.316,-0.341 -0.534,0.058 -0.94,0.264 -1.205,0.611 -0.264,0.342 -0.379,0.758 -0.334,1.255 0.07,0.529 0.268,0.937 0.599,1.202 0.341,0.269 0.777,0.376 1.316,0.32 0.539,-0.059 0.94,-0.262 1.21,-0.585 0.266,-0.336 0.373,-0.782 0.32,-1.308 m -0.376,-5.845 c -0.07,-0.654 -0.305,-1.17 -0.689,-1.49 -0.385,-0.334 -0.884,-0.465 -1.485,-0.406 -0.627,0.067 -1.09,0.312 -1.389,0.716 -0.304,0.387 -0.432,0.94 -0.363,1.599 0.086,0.694 0.312,1.202 0.697,1.514 0.4,0.323 0.914,0.451 1.485,0.39 0.603,-0.067 1.065,-0.299 1.375,-0.689 0.326,-0.395 0.449,-0.945 0.369,-1.634 m -0.932,9.882 c -1.359,0.142 -2.452,-0.088 -3.269,-0.707 -0.822,-0.612 -1.292,-1.41 -1.386,-2.396 -0.042,-0.448 0,-0.918 0.139,-1.447 0.16,-0.531 0.526,-1.052 1.138,-1.551 -0.703,-0.251 -1.266,-0.654 -1.672,-1.242 -0.401,-0.577 -0.649,-1.247 -0.737,-2.008 -0.12,-1.135 0.166,-2.149 0.876,-3.033 0.691,-0.876 1.789,-1.399 3.314,-1.568 1.516,-0.16 2.763,0.118 3.677,0.828 0.934,0.713 1.458,1.637 1.586,2.774 0.088,0.756 -0.011,1.464 -0.275,2.123 -0.299,0.646 -0.734,1.197 -1.357,1.629 0.686,0.315 1.165,0.708 1.405,1.196 0.259,0.481 0.393,0.954 0.441,1.394 0.13,0.986 -0.155,1.859 -0.834,2.633 -0.68,0.769 -1.685,1.236 -3.046,1.375 m -16.163,3.464 2.123,-0.705 -4.31,-12.919 -2.601,0.865 2.972,8.921 -3.052,0.999 0.588,1.736 c 0.808,-0.241 1.375,-0.377 1.722,-0.401 0.547,-0.061 1.046,0.024 1.479,0.257 0.294,0.16 0.574,0.424 0.809,0.763 0.134,0.219 0.232,0.374 0.27,0.484 m 116.066,50.702 -0.596,-2.342 -2.144,0.539 0.604,2.334 z m -16.839,4.437 13.25,-3.308 -0.683,-2.74 -13.271,3.301 z m 13.293,9.352 c 0.064,0.747 -0.021,1.361 -0.278,1.837 -0.256,0.467 -0.662,0.718 -1.175,0.779 -0.486,0.043 -0.889,-0.141 -1.148,-0.555 -0.2,-0.27 -0.435,-0.86 -0.739,-1.757 l -0.786,-2.328 c -0.32,-1.023 -0.745,-1.776 -1.209,-2.257 -0.713,-0.75 -1.669,-1.065 -2.887,-0.961 -1.239,0.115 -2.229,0.689 -2.964,1.722 -0.737,1.034 -1.023,2.43 -0.859,4.171 0.165,1.789 0.705,3.164 1.602,4.104 0.913,0.953 2.058,1.359 3.482,1.234 l -0.246,-2.721 c -0.641,-0.019 -1.114,-0.147 -1.456,-0.371 -0.592,-0.422 -0.947,-1.207 -1.073,-2.342 -0.045,-0.678 -0.021,-1.244 0.083,-1.688 0.205,-0.822 0.705,-1.276 1.482,-1.353 0.44,-0.046 0.807,0.128 1.092,0.496 0.267,0.374 0.526,0.986 0.809,1.824 l 0.465,1.447 c 0.443,1.402 0.891,2.377 1.316,2.86 0.694,0.865 1.741,1.239 3.065,1.124 1.226,-0.115 2.196,-0.646 2.919,-1.626 0.729,-0.975 1.012,-2.312 0.849,-4.048 -0.12,-1.445 -0.619,-2.649 -1.476,-3.602 -0.847,-0.943 -2.016,-1.381 -3.461,-1.314 l 0.248,2.732 c 0.834,-0.022 1.434,0.285 1.838,0.929 0.28,0.438 0.456,0.988 0.507,1.664 m -12.296,20.883 13.577,1.456 1.077,-9.936 -2.409,-0.251 -0.769,7.158 -2.884,-0.296 0.719,-6.59 -2.377,-0.251 -0.705,6.579 -3.485,-0.373 0.81,-7.501 -2.462,-0.256 z m 8.699,11.605 -10.747,-3.33 -0.858,2.74 10.764,3.322 -1.226,3.914 2.31,0.713 3.29,-10.534 -2.315,-0.721 z m -15.933,9.808 12.323,5.914 1.231,-2.545 -12.318,-5.925 z m 14.857,4.205 -1.047,2.174 1.979,0.953 1.049,-2.173 z m -19.153,8.158 c -0.187,-0.7 0.042,-1.528 0.705,-2.462 0.39,-0.569 0.766,-0.999 1.115,-1.258 0.679,-0.51 1.368,-0.537 2.003,-0.109 0.385,0.259 0.556,0.611 0.521,1.089 -0.016,0.462 -0.2,1.1 -0.539,1.917 l -0.572,1.392 c -0.563,1.377 -0.846,2.4 -0.833,3.057 -0.013,1.105 0.532,2.053 1.645,2.809 1.004,0.689 2.107,0.897 3.289,0.622 1.17,-0.283 2.254,-1.148 3.237,-2.585 0.833,-1.196 1.226,-2.435 1.188,-3.709 -0.059,-1.271 -0.662,-2.349 -1.824,-3.209 l -1.573,2.264 c 0.655,0.5 0.938,1.13 0.821,1.888 -0.073,0.499 -0.294,1.047 -0.679,1.591 -0.4,0.625 -0.889,1.031 -1.396,1.231 -0.484,0.203 -0.956,0.155 -1.405,-0.149 -0.403,-0.272 -0.563,-0.657 -0.526,-1.164 0.035,-0.331 0.227,-0.927 0.571,-1.813 l 0.895,-2.286 c 0.387,-0.999 0.572,-1.845 0.529,-2.494 -0.064,-1.036 -0.598,-1.901 -1.602,-2.587 -1.034,-0.7 -2.16,-0.9 -3.399,-0.58 -1.226,0.336 -2.345,1.21 -3.333,2.668 -1.02,1.476 -1.496,2.862 -1.404,4.179 0.09,1.305 0.713,2.352 1.879,3.156 l 1.546,-2.23 c -0.47,-0.43 -0.747,-0.836 -0.859,-1.228 m -5.338,18.414 2.296,-2.158 c 0.406,-0.406 0.681,-0.766 0.777,-1.087 0.182,-0.566 -0.002,-1.148 -0.579,-1.741 -0.521,-0.544 -1.084,-0.737 -1.658,-0.544 -0.313,0.085 -0.695,0.36 -1.143,0.777 l -2.23,2.106 z m -7.8,-8.139 3.714,3.869 2.014,-1.923 c 0.563,-0.544 0.868,-1.025 0.868,-1.426 0.021,-0.424 -0.27,-0.939 -0.868,-1.578 l -0.876,-0.929 c -0.262,-0.283 -0.518,-0.611 -0.71,-0.932 -0.107,-0.147 -0.23,-0.371 -0.38,-0.659 l 2.289,-2.161 0.232,0.244 c -0.077,0.317 -0.026,0.624 0.163,0.931 0.115,0.198 0.385,0.516 0.812,0.967 l 0.648,0.657 c 0.652,0.697 1.042,1.295 1.186,1.818 0.12,0.51 0.056,1.076 -0.221,1.696 0.71,-0.331 1.423,-0.379 2.085,-0.155 0.676,0.222 1.239,0.577 1.666,1.033 0.393,0.401 0.657,0.801 0.812,1.21 0.179,0.43 0.288,0.873 0.302,1.306 0.04,0.544 -0.051,1.06 -0.257,1.567 -0.229,0.51 -0.654,1.09 -1.327,1.749 l -4.721,4.497 -9.444,-9.859 z m -14.737,10.411 7.22,11.578 8.521,-5.268 -1.279,-2.046 -6.15,3.803 -1.532,-2.457 5.634,-3.498 -1.237,-2.008 -5.649,3.493 -1.851,-2.983 6.417,-3.968 -1.29,-2.075 z m -8.342,3.704 -2.536,0.947 0.441,14.358 2.835,-1.047 -0.817,-10.731 6.411,8.654 2.79,-1.02 z m -11.276,3.428 -2.785,0.561 2.721,13.356 2.78,-0.571 z m 2.833,14.884 -2.371,0.488 0.441,2.155 2.366,-0.486 z m -19.234,-13.031 -2.648,0.099 0.528,13.613 2.994,-0.118 5.049,-9.703 0.377,9.495 2.67,-0.115 -0.542,-13.613 -2.855,0.118 -5.185,9.882 z m -19.73,3.063 -1.433,8.254 2.865,0.502 1.431,-8.254 c 0.152,-0.919 0.393,-1.573 0.678,-1.96 0.475,-0.686 1.277,-0.937 2.428,-0.748 1.134,0.206 1.797,0.703 2.002,1.514 0.152,0.465 0.152,1.157 -0.027,2.078 l -1.431,8.24 2.87,0.507 1.445,-8.248 c 0.241,-1.437 0.209,-2.59 -0.099,-3.458 -0.571,-1.605 -2.032,-2.603 -4.352,-3.007 -2.328,-0.403 -4.045,0.059 -5.124,1.368 -0.59,0.713 -1.001,1.789 -1.253,3.212 m 0.748,9.92 -0.384,2.155 2.392,0.416 0.371,-2.155 z m 3.653,0.627 -0.368,2.163 2.379,0.403 0.379,-2.152 z m -24.822,-9.249 2.547,1.22 5.864,-12.318 -2.579,-1.215 z m -0.465,1.492 -0.948,1.979 2.2,1.02 0.93,-1.973 z m -11.832,-17.183 c -1.367,1.968 -1.88,3.83 -1.575,5.605 0.272,1.546 1.1,2.809 2.515,3.752 1.862,1.3 3.677,1.621 5.394,0.972 0.961,-0.366 1.704,-0.889 2.214,-1.565 l -2.342,-1.613 c -0.529,0.436 -0.996,0.708 -1.426,0.823 -0.761,0.197 -1.546,0.016 -2.363,-0.55 -0.855,-0.566 -1.268,-1.375 -1.282,-2.39 0,-1.02 0.425,-2.163 1.29,-3.421 0.873,-1.249 1.781,-2.024 2.721,-2.299 0.95,-0.288 1.816,-0.144 2.59,0.393 0.812,0.558 1.25,1.247 1.303,2.077 0.038,0.449 -0.078,1.012 -0.312,1.696 l 2.336,1.61 c 0.633,-1.357 0.807,-2.713 0.515,-4.048 -0.309,-1.338 -1.036,-2.403 -2.197,-3.204 l 0.003,-1.01 c 0.141,0.163 0.248,0.259 0.304,0.326 0.066,0.064 0.142,0.123 0.216,0.166 0.417,0.285 0.804,0.413 1.194,0.381 0.379,-0.026 0.7,-0.237 0.964,-0.614 0.333,-0.462 0.389,-0.964 0.197,-1.498 -0.197,-0.528 -0.606,-1.006 -1.196,-1.426 -0.261,-0.165 -0.614,-0.328 -1.06,-0.478 -0.206,-0.061 -0.492,-0.144 -0.868,-0.245 l -0.165,0.852 c 0.349,0.104 0.582,0.202 0.71,0.251 0.288,0.104 0.507,0.205 0.67,0.312 0.302,0.206 0.478,0.422 0.516,0.638 0.04,0.227 0.018,0.409 -0.081,0.556 -0.133,0.208 -0.336,0.304 -0.528,0.283 -0.206,0 -0.403,-0.07 -0.569,-0.182 -0.099,-0.069 -0.206,-0.152 -0.272,-0.248 -0.088,-0.094 -0.195,-0.201 -0.281,-0.318 l -0.542,0.077 -0.053,1.602 c -1.202,-0.817 -2.593,-1.02 -4.243,-0.603 -1.605,0.422 -3.041,1.53 -4.297,3.34 m -11.26,-0.974 2.059,1.962 9.439,-9.861 -2.053,-1.952 z m -0.884,1.273 -1.538,1.587 1.752,1.674 1.532,-1.592 z m -8.243,-15.626 -1.914,1.493 6.374,8.139 1.815,-1.402 2.721,-11.06 4.366,5.575 1.896,-1.476 -6.489,-8.289 -1.896,1.466 -2.675,10.927 z m -1.508,-14.969 -4.024,3.982 5.583,-0.85 z m 6.924,2.315 1.396,2.764 -14.403,1.762 -1.447,-2.878 10.058,-10.441 1.343,2.676 -2.106,2.072 2.25,4.489 z m -23.21,-17.196 c -0.577,-0.435 -1.325,-0.566 -2.272,-0.416 l 0.293,1.207 c 0.577,-0.049 1.044,0.141 1.352,0.592 0.184,0.241 0.323,0.569 0.414,0.97 0.098,0.403 0.133,0.771 0.088,1.076 -0.081,0.531 -0.388,0.905 -0.914,1.132 l 0.307,1.209 c 0.895,-0.307 1.509,-0.777 1.795,-1.417 0.307,-0.636 0.36,-1.416 0.128,-2.339 -0.235,-0.919 -0.627,-1.6 -1.191,-2.014 m 10.203,6.027 7.116,-1.738 -0.448,-1.846 -1.717,0.137 c 0.501,-0.692 0.817,-1.279 0.974,-1.768 0.264,-0.831 0.264,-1.784 0.006,-2.863 -0.433,-1.754 -1.394,-3.041 -2.89,-3.855 -1.506,-0.858 -3.335,-1.034 -5.45,-0.51 -2.165,0.51 -3.735,1.53 -4.745,3.03 -1.006,1.488 -1.26,3.207 -0.785,5.154 0.414,1.682 1.175,2.918 2.28,3.73 1.106,0.82 2.324,1.135 3.643,0.972 l -0.678,-2.726 c -0.956,0.01 -1.725,-0.342 -2.273,-1.063 -0.312,-0.403 -0.547,-0.887 -0.678,-1.45 -0.262,-1.055 -0.078,-2.029 0.563,-2.921 0.636,-0.876 1.776,-1.522 3.392,-1.909 1.626,-0.401 2.865,-0.31 3.733,0.264 0.859,0.58 1.401,1.341 1.636,2.28 0.236,0.927 0.153,1.749 -0.235,2.478 -0.381,0.721 -1.001,1.258 -1.85,1.608 l -0.734,-3.05 -2.214,0.537 z m -6.911,-21.851 c 0.86,0.652 2.043,0.962 3.576,0.94 1.551,-0.029 2.742,-0.371 3.541,-1.046 0.819,-0.679 1.244,-1.578 1.223,-2.711 -0.022,-1.129 -0.462,-2.018 -1.296,-2.67 -0.859,-0.67 -2.037,-0.982 -3.589,-0.953 -1.537,0.024 -2.71,0.376 -3.548,1.06 -0.812,0.689 -1.221,1.583 -1.196,2.716 0.021,1.134 0.448,2.024 1.289,2.664 m 3.432,-9.265 c 2.443,-0.051 4.322,0.614 5.663,1.965 1.068,1.023 1.648,2.491 1.653,4.449 0.037,1.941 -0.462,3.439 -1.522,4.486 -1.29,1.391 -3.137,2.117 -5.591,2.144 -2.502,0.045 -4.395,-0.614 -5.68,-1.952 -1.068,-1.02 -1.631,-2.497 -1.674,-4.446 -0.016,-1.952 0.483,-3.445 1.53,-4.489 1.233,-1.401 3.105,-2.136 5.621,-2.157 m 3.169,-14.142 -0.702,3.271 c -0.099,0.577 -0.11,1.039 -0.024,1.389 0.131,0.625 0.544,0.996 1.242,1.145 0.819,0.163 1.452,-0.01 1.853,-0.536 0.224,-0.289 0.397,-0.721 0.539,-1.301 l 0.654,-3.247 z m -5.175,-1.073 -0.6,2.905 c -0.145,0.641 -0.187,1.178 -0.124,1.618 0.097,0.518 0.465,0.844 1.085,0.975 0.563,0.117 0.998,0.003 1.295,-0.304 0.299,-0.316 0.51,-0.759 0.622,-1.344 l 0.668,-3.241 z m 10.382,5.631 c -0.149,0.684 -0.347,1.293 -0.59,1.845 -0.235,0.556 -0.574,1.015 -0.98,1.37 -0.371,0.326 -0.793,0.566 -1.242,0.727 -0.721,0.269 -1.473,0.315 -2.272,0.157 -0.769,-0.157 -1.388,-0.464 -1.837,-0.918 -0.486,-0.457 -0.777,-1.05 -0.884,-1.792 -0.32,0.403 -0.635,0.681 -0.969,0.857 -0.577,0.323 -1.282,0.39 -2.094,0.208 -0.793,-0.157 -1.439,-0.507 -1.922,-1.02 -0.772,-0.873 -1.028,-2.133 -0.716,-3.767 l 1.354,-6.436 13.381,2.748 z m 75.247,-53.382 c -37.81,0 -68.419,30.512 -68.419,68.146 0,37.621 30.609,68.141 68.419,68.141 37.775,0 68.384,-30.52 68.384,-68.141 0,-37.634 -30.609,-68.146 -68.384,-68.146 m 0,137.694 c -38.58,0 -69.851,-31.142 -69.851,-69.548 0,-38.414 31.271,-69.562 69.851,-69.554 38.547,0 69.818,31.14 69.818,69.554 0,38.406 -31.271,69.548 -69.818,69.548"
             style="fill:#1f357a;fill-opacity:1;fill-rule:nonzero;stroke:none"
             id="path50"
             inkscape:connector-curvature="0" />
        </g>
        <g
           id="g52"
           transform="translate(297.6613,481.1612)">
          <path
             d="m 0,0 -60.478,-60.216 h 21.084 c 0,-17.794 14.491,-32.208 32.35,-32.216 17.863,0.008 32.342,14.422 32.342,32.216 H -25.33 c 0,17.786 14.497,32.213 32.361,32.213 17.866,0 32.346,-14.427 32.346,-32.213 h 21.071 z"
             style="fill:#1f357a;fill-opacity:1;fill-rule:nonzero;stroke:none"
             id="path54"
             inkscape:connector-curvature="0" />
        </g>
        <g
           id="g56"
           transform="translate(337.0385,420.9463)">
          <path
             d="m 0,0 c 0,17.784 -14.481,32.211 -32.347,32.211 -17.861,0 -32.36,-14.427 -32.36,-32.211 h 50.63 c 0,-17.794 -14.481,-32.211 -32.345,-32.211 -17.858,0 -32.349,14.425 -32.349,32.211 H -99.855 L -39.378,-60.229 21.071,0 Z"
             style="fill:#00adef;fill-opacity:1;fill-rule:nonzero;stroke:none"
             id="path58"
             inkscape:connector-curvature="0" />
        </g>
      </g>
    </g>
  </g>
</svg>
